<?xml version="1.0" encoding="UTF-8"?>
<!DOCTYPE svg PUBLIC "-//W3C//DTD SVG 1.1//EN" "http://www.w3.org/Graphics/SVG/1.1/DTD/svg11.dtd">
<!-- Creator: CorelDRAW 2020 (64 Bit) -->
<svg xmlns="http://www.w3.org/2000/svg" xml:space="preserve" width="135.006mm" height="135.185mm" version="1.1" style="shape-rendering:geometricPrecision; text-rendering:geometricPrecision; image-rendering:optimizeQuality; fill-rule:evenodd; clip-rule:evenodd" viewBox="0 0 550.26 551" xmlns:xlink="http://www.w3.org/1999/xlink" xmlns:xodm="http://www.corel.com/coreldraw/odm/2003"><script xmlns="" id="argent-x-extension" data-extension-id="{51e0c76c-7dbc-41ba-a45d-c579be84301b}"/>
 <defs>
  <style type="text/css">
   <![CDATA[
    .fil0 {fill:#FF9900}
   ]]>
  </style>
 </defs>
 <g id="Camada_x0020_1">
  <metadata id="CorelCorpID_0Corel-Layer"/>
  <path class="fil0" d="M370.29 370.65c-26.36,26 -57.78,39.36 -94.97,39.36 -37.19,0 -68.61,-13.36 -94.97,-39.36 -26,-26.36 -39.36,-58.14 -39.36,-94.97 0,-37.19 13.36,-68.97 39.36,-94.97 26.36,-26.36 57.78,-39.72 94.97,-39.72 37.19,0 68.61,13.36 94.97,39.72 26.36,26 39.72,57.78 39.72,94.97 0,36.83 -13.36,68.61 -39.72,94.97zm-113.44 -87.99c13.51,-0.18 41.03,-2.39 48.96,5.08 3.97,3.74 6.33,13.22 3.64,20.4 -2.34,6.22 -8.46,9.72 -17.2,10l-35.45 0.08 0.05 -35.55zm-30.07 35.39l-16.64 0.39 0.09 22.24c5.28,1.32 17.35,0.08 23.76,0.58l0.15 13.65 22.41 -0.22 0.16 -13.94 16.62 0.19 0.07 13.99 22.4 -0.3 0.39 -13.83c4.33,-1.16 10.3,-1.12 15.39,-2.49 28.26,-7.61 35.32,-35.72 24.32,-54.01 -6.61,-10.99 -14.28,-11.34 -19.73,-14.69 12.91,-6.26 22.43,-19.11 16.28,-38.53 -6.63,-20.94 -29.7,-18.97 -36.56,-20.94l-0.06 -14.05 -22.46 0.1 -0.1 13.99 -16.7 0.01 -0.04 -14.12 -22.37 0.15 -0.17 13.49c-0.96,1.03 1.01,0.7 -2.53,0.97l-20.56 -0.01 -0.03 21.36c2.84,0.09 5.69,0.06 8.54,0.06 4.33,-0.01 6.29,-0.75 7.27,0.92l0.09 85.05zm29.76 -85.48c12.05,-0.19 37.12,-2.28 44.55,4.56 5.11,4.7 9.99,25.94 -15.67,25.91l-28.85 -0.02 -0.02 -30.45z"/>
  <path class="fil0" d="M427.59 376.82l0.98 0c-7.03,10.54 -15.23,19.91 -24.6,29.28 -35.13,35.13 -78.45,52.7 -128.79,52.71l-0.06 0 -0.06 -0c-50.34,-0.01 -93.66,-17.58 -129.96,-52.71 -35.14,-36.31 -52.71,-79.65 -52.71,-130.02l0 -0 0 -0c0,-50.37 17.57,-93.71 52.71,-128.85 36.31,-36.31 79.65,-53.88 130.02,-53.88 1.42,0 2.84,0.02 4.26,0.05l0.83 0.02c62.53,1.68 124.46,34.29 153.5,90.88l79.79 -46.06c-48.8,-86.27 -136.68,-138.25 -238.36,-138.25 -75.44,0 -140.34,27.55 -194.51,81.36 -53.81,53.44 -80.62,118.33 -80.62,194.51 0,75.44 26.44,140.71 80.62,194.51 53.81,53.44 119.07,80.62 194.51,80.62 154.9,0 275.26,-125.88 275.14,-275.13l-0.23 0c-0.01,-15.9 -1.39,-31.49 -4,-46.65l-181.25 0 0 92.56 87.3 0c-5.12,19.85 -13.48,38.4 -24.5,55.04z"/>
 </g>
</svg>